<?xml version="1.0" encoding="utf-8"?>
<!-- Generator: Adobe Illustrator 22.1.0, SVG Export Plug-In . SVG Version: 6.00 Build 0)  -->
<svg version="1.1" id="Layer_1" xmlns="http://www.w3.org/2000/svg" xmlns:xlink="http://www.w3.org/1999/xlink" x="0px" y="0px"
	 viewBox="0 0 514 115" style="enable-background:new 0 0 514 115;" xml:space="preserve">
<style type="text/css">
	.st0{fill:none;}
	.st1{font-family:'MyriadPro-Regular';}
	.st2{font-size:95px;}
</style>
<g>
	<g>
		<path d="M13.4,55.8c0-4.2,0-8.2-0.1-12H18c0.2,1.5,0.3,7.7,0.2,9c2.1-4.8,6-10.2,15.8-10.2c8.5,0,16,4.8,16,17.9v30.8h-4.8v-30
			c0-8.5-3.5-14-11.8-14c-11.3,0-15.2,9.4-15.2,19.8v24.2h-4.8V55.8z"/>
		<path d="M97.5,22v26c2.2-3.2,6.1-6.9,14.1-6.9c9.2,0,16.5,5.4,16.5,18.8v31.5h-13.5V61.8c0-6.4-2.3-9.8-8-9.8c-7.6,0-9,5.6-9,13.2
			v26.1H83.9V22H97.5z"/>
	</g>
</g>
<rect x="56" y="5.4" class="st0" width="66.7" height="89.3"/>
<text transform="matrix(1 0 0 1 56.0479 72.8779)" class="st1 st2">|</text>
</svg>
