<?xml version="1.0" encoding="utf-8"?>
<!-- Generator: Adobe Illustrator 22.1.0, SVG Export Plug-In . SVG Version: 6.00 Build 0)  -->
<svg version="1.1" id="Layer_1" xmlns="http://www.w3.org/2000/svg" xmlns:xlink="http://www.w3.org/1999/xlink" x="0px" y="0px"
	 viewBox="0 0 514 115" style="enable-background:new 0 0 514 115;" xml:space="preserve">
<style type="text/css">
	.st0{fill:none;}
	.st1{font-family:'MyriadPro-Regular';}
	.st2{font-size:95px;}
</style>
<g>
	<g>
		<path d="M13.4,55.8c0-4.2,0-8.2-0.1-12H18c0.2,1.5,0.3,7.7,0.2,9c2.1-4.8,6-10.2,15.8-10.2c8.5,0,16,4.8,16,17.9v30.8h-4.8v-30
			c0-8.5-3.5-14-11.8-14c-11.3,0-15.2,9.4-15.2,19.8v24.2h-4.8V55.8z"/>
		<path d="M65.5,21.3h4.8v9.2h-4.8V21.3z M65.5,43.8h4.8v47.5h-4.8V43.8z"/>
		<path d="M120.8,77.4c-2.3,8.4-7.8,15.1-18.4,15.1C90.5,92.5,82,83.7,82,67.8c0-13,6.9-25.1,20.9-25.1c12.1,0,17,8.6,17.9,15.2
			h-4.8c-1.4-5.5-5-10.7-13.1-10.7C92.7,47.2,87,55.7,87,67.6C87,78.9,92.4,88,102.3,88c6.9,0,11.1-3.5,13.6-10.6H120.8z"/>
		<path d="M170.3,67.5c0,13.2-7.3,25-21.5,25C136,92.5,128,81.9,128,67.6c0-13.6,7.5-24.9,21.3-24.9
			C161.9,42.7,170.3,52.6,170.3,67.5z M133,67.6c0,11.3,6.1,20.4,16.2,20.4c10.3,0,16.1-8.5,16.1-20.4c0-11.2-5.7-20.4-16.2-20.4
			C138.1,47.2,133,56.2,133,67.6z"/>
		<path d="M182,91.3v-70h4.8v70H182z"/>
		<path d="M203.4,68.2c0.1,12.3,6.3,19.9,15.4,19.9c8.9,0,12-5,13.7-8.9h4.8c-2,6.3-7,13.4-18.7,13.4c-14.4,0-20-12.4-20-24.5
			c0-13.6,6.7-25.3,20.6-25.3c14.6,0,19.3,12.6,19.3,21.6c0,1.3,0,2.7-0.1,3.9H203.4z M233.5,64c-0.1-9.4-5.2-16.8-14.5-16.8
			c-9.8,0-14.3,6.8-15.3,16.8H233.5z"/>
		<path d="M282.1,22v26c2.2-3.2,6.1-6.9,14.1-6.9c9.2,0,16.5,5.4,16.5,18.8v31.5h-13.5V61.8c0-6.4-2.3-9.8-8-9.8
			c-7.6,0-9,5.6-9,13.2v26.1h-13.6V22H282.1z"/>
		<path d="M365.7,78.6c0,4.7,0.4,11.5,0.7,12.7h-13c-0.4-1-0.7-3.6-0.7-4.8c-1.8,2.8-5.1,5.9-13.8,5.9c-11.9,0-16.9-7.8-16.9-15.4
			c0-11.2,9-16.4,23.4-16.4c2.4,0,5.4,0,7,0v-3c0-3.5-1.3-6.9-7.6-6.9c-5.7,0-7,2.4-7.6,6h-12.9C325,48,330.4,41,345.4,41
			c13.2,0.1,20.3,5.2,20.3,16.9V78.6z M352.4,69c-1.1,0-3.8,0-5.5,0c-8.2,0-11.2,2.5-11.2,7.2c0,3.6,2.2,6.6,7.1,6.6
			c8.7,0,9.7-6,9.7-12.5V69z"/>
		<path d="M378,55.5c0-4.9,0-9.2-0.1-13.3h13.4c0.2,1.1,0.4,6,0.4,8.6c2.2-5.6,7.4-9.7,15.8-9.8v13c-9.9-0.3-15.8,2.4-15.8,15.9
			v21.4H378V55.5z"/>
		<path d="M460.6,22v55.8c0,4.5,0,9,0.1,13.5h-13.1c-0.3-1.5-0.5-4-0.6-5.1c-2.4,3.9-6.6,6.3-14,6.3c-12.4,0-20.3-10-20.3-25.3
			C412.7,52,421.1,41,435,41c7.1,0,10.9,2.5,12,4.7V22H460.6z M426.7,66.8c0,9.6,3.7,14.8,10.4,14.8c9.4,0,10.4-7.8,10.4-14.9
			c0-8.4-1.2-14.8-10.1-14.8C430.3,51.9,426.7,57.5,426.7,66.8z"/>
		<path d="M467.9,42.2h7.6V28.9h13.6v13.3h9.6v10.2h-9.6v24.3c0,3.7,1.1,5.2,5.2,5.2c0.8,0,2.1,0,3.1-0.2v9.4
			c-2.7,0.9-6.4,0.9-9.2,0.9c-9.6,0-12.8-5.1-12.8-13.7V52.4h-7.6V42.2z"/>
	</g>
</g>
<rect x="242" y="10.4" class="st0" width="66.7" height="89.3"/>
<text transform="matrix(1 0 0 1 242.0479 77.8779)" class="st1 st2">|</text>
</svg>
